<?xml version="1.0" encoding="UTF-8" standalone="no"?>
<!-- Created with Inkscape (http://www.inkscape.org/) -->

<svg
   width="1640.7842"
   height="1123.2671"
   viewBox="0 0 434.12414 297.19776"
   version="1.1"
   id="svg5"
   inkscape:version="1.1.1 (3bf5ae0d25, 2021-09-20)"
   sodipodi:docname="iceland-360.svg"
   xmlns:inkscape="http://www.inkscape.org/namespaces/inkscape"
   xmlns:sodipodi="http://sodipodi.sourceforge.net/DTD/sodipodi-0.dtd"
   xmlns="http://www.w3.org/2000/svg"
   xmlns:svg="http://www.w3.org/2000/svg">
  <sodipodi:namedview
     id="namedview7"
     pagecolor="#ffffff"
     bordercolor="#666666"
     borderopacity="1.0"
     inkscape:pageshadow="2"
     inkscape:pageopacity="0.0"
     inkscape:pagecheckerboard="0"
     inkscape:document-units="mm"
     showgrid="false"
     inkscape:zoom="0.36"
     inkscape:cx="406.94444"
     inkscape:cy="556.94444"
     inkscape:window-width="3440"
     inkscape:window-height="1377"
     inkscape:window-x="-8"
     inkscape:window-y="-8"
     inkscape:window-maximized="1"
     inkscape:current-layer="layer3"
     fit-margin-top="20"
     fit-margin-left="20"
     fit-margin-bottom="20"
     fit-margin-right="20"
     units="px" />
  <defs
     id="defs2" />
  <g
     inkscape:groupmode="layer"
     id="layer2"
     inkscape:label="Drawing"
     transform="translate(99.225884,-3.4950529)" />
  <g
     inkscape:groupmode="layer"
     id="layer3"
     inkscape:label="Goggles"
     transform="translate(99.225884,-3.4950529)">
    <g
       id="g7117">
      <g
         id="g2315"
         style="fill:#ffffff;stroke:none">
        <path
           style="opacity:1;vector-effect:none;fill:#ffffff;fill-opacity:1;stroke:none;stroke-width:0.264583px;stroke-linecap:butt;stroke-linejoin:miter;stroke-miterlimit:4;stroke-dasharray:none;stroke-dashoffset:0;stroke-opacity:1"
           d="m -41.946126,24.058875 4.07955,1.882868 2.510491,-1.569057 -0.209209,-2.092076 -1.882867,-0.209208 -2.301285,-3.765737 1.464455,-0.941434 2.824303,2.928907 -0.418418,-2.092076 3.033512,-0.418415 0.732226,-0.627623 2.092077,0.523019 0.627623,2.510491 0.523018,-1.464453 -1.673662,-1.987472 -2.092074,-1.150642 1.359848,-0.732227 h 2.196682 l 2.196679,2.092076 2.405887,0.313812 1.464453,2.092076 1.464454,-0.209208 1.464453,-2.092076 0.209207,-2.092076 2.301284,0.209208 2.092076,2.510491 0.941434,1.569057 h 1.150642 v -2.405888 l -0.627623,-2.092076 1.882869,0.732227 1.150642,1.464453 0.627623,3.138114 1.0460374,1.778265 3.1381141,1.255246 v 1.359849 l 1.4644534,0.313811 -0.8368305,1.569058 h 1.7782646 l 0.3138114,0.627621 -1.2552455,0.836832 -0.1046038,1.673662 0.8368303,1.255244 -1.1506417,2.092076 1.8828684,-0.313812 1.6736609,-1.255244 -0.2092077,2.824303 1.56905709,-1.569059 0.94143422,-1.882867 -0.10460378,2.928906 3.45192567,-0.209206 1.5690569,-0.732229 0.1046038,1.987473 1.4644531,1.255247 -3.1381138,2.719697 2.9289062,-1.046039 1.673661,1.255247 1.7782643,1.150641 3.347322,0.313812 -0.941434,1.35985 2.092076,1.673662 -1.569057,2.615094 1.359849,0.836829 -0.627623,2.092076 0.732227,2.301285 2.092076,-0.941435 1.150642,1.778265 -1.359849,2.824302 1.569056,-1.35985 0.52302,-1.673658 -0.418416,-2.615097 3.242718,-0.523018 1.35985,3.451926 h -1.673661 l 0.418415,2.301283 1.882869,1.150641 2.719699,-1.987471 2.092077,1.35985 1.882867,2.405885 -3.974944,0.732227 -2.928907,0.836832 -4.184152,1.35985 0.523019,1.569056 3.03351,-1.569056 1.987472,0.104603 2.405888,-0.732227 0.732226,0.418415 -2.615095,1.987473 3.242719,-0.52302 2.196679,0.418415 0.836829,4.288758 -2.301282,1.569056 2.301282,0.941435 -0.523017,2.405885 -1.255247,2.196682 -2.615094,2.405885 -2.928907,0.836832 0.732227,1.046039 1.778265,-0.523021 2.7197,2.301285 -2.196682,1.882868 -1.67366,2.092076 -5.648606,-0.523018 -3.347321,-3.765738 -0.836831,-1.673661 -1.359849,-1.150641 -2.19668,0.627623 3.451925,2.196679 0.941435,3.138115 -0.941435,1.046038 1.046039,1.464453 0.732226,2.405888 3.765737,1.464453 4.288756,-0.941435 1.464452,1.673661 -0.523018,1.464453 -2.824302,3.451926 0.313811,1.150641 3.55653,-3.451926 3.138114,-0.418415 0.209206,5.334794 -3.138112,4.707169 -3.661134,3.13812 4.184152,-1.46446 2.615094,-1.35984 2.615097,3.87034 1.255244,0.62762 0.104605,5.02098 -0.313811,6.38083 3.870341,8.89133 v 3.66113 l 0.941432,0.1046 v -4.28875 l -1.673659,-5.12559 0.418415,-2.19668 1.150641,-3.45192 -0.523018,-10.7742 1.359847,-0.31381 3.347324,8.99593 2.405888,0.1046 -3.451927,-9.30974 0.209209,-6.694639 1.464453,-2.092076 v -2.615097 l 4.497962,-4.393358 1.046038,0.418415 0.836832,-2.19668 3.661132,-3.34732 2.510491,1.882868 -0.313812,5.962417 0.941435,1.150641 1.35985,1.255247 -0.104603,4.288755 1.255244,1.150641 0.941435,2.301286 1.987471,-0.73223 1.150644,-4.497961 -0.836832,-1.569059 -3.765735,-0.104603 1.882867,-1.35985 1.464453,-1.569056 3.347323,0.209206 2.301282,-3.765735 0.104603,-3.661135 1.35985,-3.033508 -0.313811,-5.962417 -1.778265,-3.347324 0.52302,-2.928905 -2.928905,-8.577511 -0.104606,-3.347323 -1.569056,-2.092077 0.941433,-4.184152 -0.83683,-1.882868 2.301285,-0.418415 1.464453,0.83683 0.941432,-1.673662 3.556532,-0.418414 1.987471,-2.615094 1.882867,1.464453 1.046038,-0.209209 1.882871,3.765738 1.569056,3.347323 0.941435,2.301282 2.615094,3.974944 -1.046038,0.732226 2.405888,2.928909 0.52302,2.719697 1.882868,-0.104603 1.359849,1.255246 1.673662,-0.313811 1.569056,2.928906 0.209208,3.451926 1.359848,1.046038 0.104605,3.34732 0.941433,1.569059 2.405888,0.209206 0.941435,-2.405886 1.464453,2.510491 3.138119,-1.150643 1.15064,-3.55653 -0.10461,-3.033508 -1.35985,-5.648606 -1.46445,-2.928908 -2.196679,-2.301282 0.627621,-1.882868 3.033508,-1.046038 -0.20921,-2.196682 -1.15064,-2.928906 2.19668,-2.196679 2.40589,-0.627623 5.02098,-0.418415 1.67366,1.464453 0.41842,-2.19668 1.67366,-0.209208 -0.1046,1.150644 1.98747,2.301282 -0.83683,-3.242718 -1.04604,-1.150641 1.98747,-4.916379 2.92891,-2.510491 h 2.30128 l 0.31381,3.55653 1.56906,-1.150644 0.62763,-3.347321 3.55652,1.673662 -1.67366,4.288755 0.52302,0.627624 1.46446,-2.615097 3.03351,-0.313812 2.61509,3.55653 -2.19668,2.719699 -0.1046,1.255247 3.66113,-1.778265 1.15064,1.464453 0.83683,4.288756 -0.62762,4.70717 2.8243,0.732227 1.88287,1.359849 2.7197,0.104603 2.09207,3.661135 0.94144,3.661132 2.19668,0.104603 0.20921,4.602568 1.67366,2.824302 -0.31381,4.184153 2.30128,2.928908 0.73223,4.18415 0.83683,0.523021 0.94143,-2.196679 -1.77826,-3.974945 -0.94144,-2.928907 0.41842,-2.719698 1.15064,-1.778265 0.31381,-3.974945 -1.46445,-4.288756 -1.98747,-2.719699 -0.41842,1.255246 -2.30128,-1.987472 0.52302,-1.673661 -2.7197,-4.916379 -1.35985,-4.184152 -0.62762,-8.263701 1.67366,-1.987472 4.70717,0.104604 1.15064,1.359849 1.04604,-1.046038 1.04604,1.464454 0.31381,0.523019 3.03351,-1.35985 3.34732,2.19668 0.73223,2.19668 2.40588,0.418415 0.52302,1.464453 2.92891,1.882869 2.7197,3.870341 -0.10461,1.150641 1.67367,2.092077 7.11305,-0.523019 1.98748,-1.150642 0.52302,-1.882869 0.94143,-1.150642 -0.83683,-3.03351 0.94143,-1.882868 2.09208,-0.732227 1.04604,-1.778265 -0.62762,-2.405887 0.52301,-2.19668 2.09208,-1.987472 2.30128,0.941434 0.20921,-1.778265 5.544,0.418415 1.15065,2.510492 0.1046,2.928906 0.83683,1.150642 0.20921,2.510491 1.25524,-0.209207 -0.52302,-1.882869 5.75321,-0.418415 4.60257,-2.510491 4.18415,-1.255246 2.30129,-1.046038 1.67366,-5.334794 0.52302,-2.928907 -2.30129,-3.556529 v -2.092076 l -1.04604,-0.523019 -0.31381,-2.615095 0.10461,-3.033511 0.41841,-0.523019 -1.77826,-4.707171 -1.15064,-1.046038 1.98747,-2.928906 1.04604,3.03351 0.52301,-2.824303 2.19668,-0.627623 1.04604,1.882869 2.40589,-0.732227 0.94143,1.987473 1.98748,0.418415 1.15064,-3.242718 0.73223,1.464453 1.46445,-3.4519254 3.03351,0.8368304 3.24272,-0.2092076 3.55653,3.8703406 -0.41842,2.301284 -0.41841,4.079548 1.98747,-0.941434 2.51049,0.418415 -0.73223,1.882869 5.23019,0.313811 1.04604,1.987472 -0.73223,2.301284 0.62763,2.19668 -1.88287,3.138114 -1.98747,0.732227 2.51049,1.569057 1.15064,-0.313812 -0.41842,3.347322 2.7197,0.523019 1.88287,-1.255245 -0.1046,1.778264 2.19668,0.523019 1.46445,2.092076 2.09208,0.732227 1.98747,3.242718 0.31381,-2.19668 1.35985,-2.092076 -0.83683,-5.020983 1.04604,-1.464453 2.7197,0.627623 5.544,-1.255246 0.52302,-1.882868 1.56905,-1.882869 2.30129,-3.347321 3.66113,-2.405888 3.34732,0.209208 3.13812,1.778264 3.66113,-1.778264 3.55653,-0.523019 -0.41842,1.569057 -10.04196,3.974944 -0.62762,1.255246 -5.3348,2.405887 -1.88287,1.464454 2.19668,1.464453 1.56906,3.974945 -3.55653,3.765736 -3.24272,2.301284 -2.19668,0.418415 -0.83683,1.778265 1.67366,1.255246 2.7197,-0.627623 0.20921,3.242718 -1.15064,1.882868 3.03351,-0.941434 1.98747,0.941434 1.98747,-0.209207 0.94144,2.092076 2.30128,-0.732227 0.94144,-2.092076 2.51049,-0.83683 2.19668,1.359849 1.04604,3.765737 1.25524,1.150642 -0.31381,6.171624 -3.03351,4.184153 -1.15064,2.092076 -2.19668,0.941434 -1.67366,4.811775 -2.6151,2.405887 0.73223,0.418416 4.49796,-4.184152 -3.13811,5.962416 1.77826,0.523019 5.02098,-2.405887 8.0545,-2.615095 5.02098,-0.732227 -2.19668,6.485436 4.39336,3.974945 10.8788,6.380832 3.03351,-1.464454 2.40588,1.35985 -1.46445,2.092076 3.03351,0.209208 -0.41841,3.974944 1.77826,0.941434 1.67366,-2.928906 1.88287,0.209207 1.04604,1.778265 1.56905,1.673661 -0.41841,3.870338 -1.56906,0.83683 1.04604,2.51049 -1.56906,1.77827 0.73223,1.35985 -0.94143,2.40589 -5.96242,0.31381 0.52302,1.15064 4.07955,1.15064 -1.35985,2.6151 -5.12559,-0.10461 -3.66113,2.30129 -0.62763,1.67366 2.5105,-1.35985 3.13811,-1.25525 3.76574,0.52302 2.19668,-1.04604 5.02098,2.6151 -2.40589,4.07955 -5.75321,1.67366 -4.60256,-0.10461 1.15064,0.73223 4.39336,0.83683 4.91638,-0.73223 -1.04604,4.07955 -2.8243,0.31381 -0.62763,1.46446 3.13812,-0.41842 c 0,0 0,2.09208 0.41841,2.09208 0.41842,0 1.35985,0.73222 1.35985,0.73222 l 1.04604,-3.55652 2.61509,-2.19668 -0.31381,5.12558 0.10461,1.56906 1.15064,1.15064 -1.98747,2.6151 -2.6151,1.67366 0.94144,1.67366 -0.73223,1.25524 -2.92891,1.04604 -4.28875,-0.41841 -2.30129,-3.87034 -6.69464,-3.76574 1.77826,2.8243 -3.13811,0.52302 -1.35985,0.83683 h -5.12559 l 6.17163,0.73223 5.02098,1.15064 3.03351,2.09208 3.66113,3.24271 2.19668,0.10461 0.94144,-1.04604 v 3.97494 l -4.70717,0.31381 -2.19668,-0.94143 c 0,0 -7.53148,-1.77826 -7.11306,-1.67366 0.41841,0.1046 2.51049,2.51049 2.51049,2.51049 l 5.33479,0.94144 4.07955,3.03351 -1.88287,2.19668 -0.94143,1.15064 -4.81178,-1.35985 4.07955,2.40589 0.20921,1.25524 -3.03351,0.41842 -4.70717,0.62762 1.88287,4.28876 -3.66114,2.30128 -5.544,1.35985 -3.76573,-1.35985 -2.82431,-4.18415 -3.13811,-3.66114 0.52302,2.7197 2.61509,2.7197 0.41842,2.8243 4.60257,3.76574 0.1046,1.98747 -3.34732,-1.35985 -4.91638,-0.41841 0.52302,1.77826 1.77826,1.46446 -1.04604,2.7197 h -3.34732 l -2.19668,0.94143 0.94144,1.67366 1.67366,0.1046 -0.20921,2.09208 1.98747,0.73223 -0.31381,3.24272 -2.30128,7.94988 -3.76574,-2.09207 -2.61509,0.31381 -0.83684,2.92891 -1.88286,0.94143 -1.88287,1.88287 -3.24272,2.51049 -1.35985,0.83683 0.41842,2.19668 0.94143,-0.41841 v 1.98747 l -2.19668,3.55653 -4.70717,-4.70717 -1.88287,1.56905 -1.88287,-0.83683 -0.52302,2.51049 -0.94143,-3.55653 -2.30128,-3.24271 0.73222,3.87034 -2.61509,-1.56906 0.62762,-3.03351 -3.45193,-3.66113 2.92891,4.28875 -0.20921,1.67366 -1.77826,-0.52302 0.62762,2.92891 -0.62762,1.35985 -2.30129,1.04604 -2.40588,-0.83683 1.46445,1.88287 2.19668,-0.10461 -3.34732,1.98747 -6.90385,1.77827 -1.46446,2.30128 -3.55653,1.46446 -5.43939,2.40588 -6.38084,6.06702 -6.06702,4.91638 -2.51049,3.13812 -4.60256,5.75321 -4.28876,5.02098 -2.09208,4.39336 2.40589,-6.06702 -2.30128,0.62762 -3.03351,0.41842 -1.77827,1.88287 -0.62762,2.19668 -0.73223,-2.30129 -0.41841,3.66113 -1.56906,-2.9289 -1.98747,-4.49797 -0.31381,1.88287 0.52302,1.88287 -0.62763,4.18415 -1.98747,0.62763 -13.07548,0.1046 -5.96241,1.35985 -5.3348,2.40589 -5.43939,3.13811 -2.82431,3.55653 -2.9289,6.59004 -3.34732,5.33479 -7.00846,4.60257 -2.30128,1.46446 -1.77827,-2.09208 0.83683,-4.49796 -4.81177,-5.96242 1.88287,3.66113 -0.52302,1.15064 -2.82431,-0.83683 -1.25524,0.41842 2.30128,2.09207 2.19668,-0.41841 0.62762,2.40589 -3.55652,-1.15065 -1.25525,0.83684 5.02098,3.03351 0.52302,-1.25525 1.15064,2.7197 -8.68211,2.40589 -8.47291,3.13811 -7.42687,-0.94143 -4.70717,-1.04604 -1.98747,1.15064 -4.81178,-0.94143 -6.27623,-3.76574 -2.19668,-0.20921 -10.878793,-4.91638 -9.62355,-1.88287 -7.008455,0.83683 -7.740682,-5.544 -10.251173,-9.83275 -3.138114,-3.03352 -3.661133,-2.30128 2.719699,-1.77826 0.313812,-3.55653 -1.882869,2.30128 -1.882869,1.04604 -0.418415,1.35985 -6.171624,-4.49797 -4.811775,-1.56905 -4.079549,-3.24272 -0.418415,-4.70717 3.556529,-0.20921 -3.765737,-1.46445 -2.510491,2.09207 -1.046038,0.31382 3.242718,3.66113 -2.719699,-0.41842 -2.405887,1.15064 0.418415,2.19668 -3.765737,0.20921 -8.263701,1.98747 -2.928906,-3.34732 -2.405888,-0.41841 -0.941434,1.35985 -5.7532092,1.25524 -6.7992473,0.41842 -6.9038511,-1.88287 -2.5104914,1.67366 -0.313811,0.73223 -0.732227,-0.62763 -2.615095,0.73223 -1.778265,1.15064 -3.765737,-1.04604 -2.615095,1.67367 -1.255246,-1.98748 1.464454,-2.61509 -1.673661,-2.30129 1.046038,-2.40588 0.83683,-2.51049 2.719699,-0.94144 -3.347321,-0.83683 -1.569058,-1.67366 1.778265,-2.19668 0.941434,-7.21766 3.242718,2.40589 2.510492,2.40588 0.104603,4.28876 1.255246,-0.41842 4.184152,1.04604 -0.104604,-2.30128 1.9874728,-1.25525 h 1.3598494 l 2.0920761,-1.88287 2.0920761,1.67366 2.7196989,-1.56905 3.6611332,-1.25525 3.4519256,-1.56906 -3.242718,-3.13811 0.9414343,-1.46445 1.7782646,0.41841 0.1046038,1.46446 1.5690571,-0.73223 -0.2092076,-1.35985 -4.4979636,-3.03351 1.3598495,-1.15064 2.1966799,1.04604 h 2.6150951 l 1.8828688,2.30128 0.732226,-2.09208 -0.941434,-1.88287 1.569057,-0.83683 1.046038,1.77827 3.347322,-1.35985 -3.347322,-0.73223 -0.209207,-0.83683 2.092076,-1.15064 -3.55653,-0.20921 -0.83683,-2.19668 -2.9289067,0.52302 1.8828685,-4.39336 4.3933602,-5.544 3.974944,0.31381 -1.359849,-1.35985 3.556529,-2.09207 1.882869,1.56905 1.778264,-0.62762 1.255246,1.35985 1.882868,-1.88287 -2.19668,-1.88287 -5.753209,-0.52302 -3.242718,0.10461 -3.451925,3.76573 -3.9749448,3.87035 -5.6486055,0.94143 -2.61509511,-1.04604 3.45192551,-3.45192 1.7782647,-1.56906 3.242718,-0.1046 0.9414342,-1.35985 -3.0335103,-0.62763 -1.9874723,0.31381 -0.1046038,1.04604 -1.8828685,-2.30128 0.8368304,-4.49796 2.3012837,-4.49797 3.765737,-1.77826 3.2427178,-0.73223 -1.569057,-1.15064 2.405888,-3.03351 -4.1841526,0.94143 -0.4184152,1.56906 -1.4644533,1.25525 -0.6276228,-0.73223 -1.9874723,1.77826 -1.9874723,0.73223 -0.1046038,-2.8243 -0.7322266,2.51049 -1.04603808,1.56906 0.20920761,3.34732 -1.56905707,-0.31381 -1.35984946,1.46445 -1.3598495,-1.25525 -1.2552456,-2.51049 -1.1506419,1.88287 1.8828685,-4.70717 -1.5690571,-1.15064 -1.8828684,0.62762 1.9874723,-1.56906 -0.8368305,-0.73222 -3.2427179,1.77826 -1.569057,-1.46445 1.7782646,-0.62762 -1.0460376,-3.13812 -0.941435,-3.13811 -2.615095,-2.30129 4.0795486,1.77827 1.2552456,-2.7197 -0.2092076,-1.67366 -2.8243026,2.09207 -1.046038,-1.98747 2.405887,-1.35985 1.255246,-3.24272 0.6276228,-0.83683 -4.4979638,-0.41841 2.405888,3.55653 -1.255246,0.83683 -3.661133,-4.49796 1.882868,-1.88287 1.255246,-2.19668 -2.510491,1.04603 -1.673661,-0.2092 -1.150642,0.94143 1.046038,1.04604 -3.661133,0.94143 -3.03351,-0.41841 0.941434,-1.77827 -1.464453,-0.83683 -1.046039,0.20921 1.464454,1.56906 -3.451926,-0.83683 -2.824303,-0.62763 -3.03351,0.62763 -1.046038,-0.52302 -3.870341,0.31381 -8.577512,-2.92891 -2.928906,0.20921 -0.209208,2.30128 -2.301284,0.83684 -2.301283,-1.04604 -3.451926,0.2092 -1.359849,1.46446 0.313811,1.04604 -0.523019,2.19668 -1.569057,0.62762 -3.03351,0.31381 -1.778265,0.52302 -4.811775,-1.88287 -2.615095,-6.17162 -2.510491,-5.64861 2.301283,-0.1046 2.405888,-2.40589 3.974944,-1.46445 3.242718,2.61509 2.301284,0.31381 2.405888,-0.1046 1.046038,-1.98747 2.301283,0.2092 1.778265,-2.9289 3.765737,-0.31381 1.569057,-1.56906 1.778265,1.35985 1.046038,1.35985 -0.732227,1.56906 1.673661,-0.52302 h 1.359849 v -2.51049 l -0.313811,-4.07955 1.464453,-1.25525 3.870341,0.73223 -1.255246,3.13811 -1.046038,2.19668 1.882869,2.19668 -0.523019,-3.24272 1.673661,-0.83683 1.046038,-2.9289 3.242718,-0.94144 1.359849,2.82431 1.882869,-2.19668 2.928906,-1.67367 -3.03351,-0.73222 1.464453,-0.83683 1.35985,-1.25525 1.67366,-2.51049 2.719699,1.77826 0.104604,2.92891 0.418415,2.19668 1.046038,1.56906 1.464454,-0.52302 0.523019,-3.66113 2.405887,-1.35985 0.627623,-3.24272 1.987472,-0.1046 1.150642,1.35984 -1.464453,1.15065 -1.35985,1.15064 4.288756,-0.73223 3.3473222,-0.1046 3.9749446,1.98747 3.34732176,-0.20921 5.43939784,0.62763 h 3.1381141 l 0.1046038,0.2092 3.7657367,-0.31381 -0.418415,-2.19668 -1.3598494,-1.56906 1.6736614,-1.88286 1.67366,-3.13812 1.255246,-4.18415 -0.627623,-1.98747 -2.824303,-0.31381 -0.732226,2.9289 -2.7196991,2.7197 -2.9289065,2.09208 -5.23019023,1.46445 -1.67366087,-1.46445 -3.9749446,-0.31381 -5.0209827,-4.07955 -0.941434,0.94143 -2.092076,0.31381 -3.55653,-0.73222 v -1.35985 l 2.719699,-0.10461 1.255246,-0.62762 -3.347322,-0.73223 -3.870341,2.5105 -1.67366,2.09207 1.255245,-3.66113 4.811775,-1.77827 1.569057,-3.66113 2.19668,-0.94143 1.778265,-1.77827 1.046038,-0.20921 0.3138114,-1.98747 5.4393978,-1.77826 5.02098263,-3.13812 4.18415217,-3.87034 c 0,0 1.8828685,-1.67366 2.4058875,-1.67366 0.523019,0 5.8578135,-0.52302 5.8578135,-0.52302 l 2.719699,-2.40589 -2.092077,-0.31381 -1.987472,1.35985 -3.138114,-1.35985 -3.6611332,1.35985 1.0460381,-2.51049 -2.0920761,-3.661132 -1.0460381,0.418415 -0.4184152,2.928907 -1.56905706,-2.30128 -1.15064185,-3.347325 -0.52301903,3.661135 -1.98747226,4.28875 -1.3598495,1.46446 -4.288756,-2.7197 -2.9289068,-1.15064 1.35985,-2.6151 4.6025672,-1.464452 3.1381141,-3.138114 1.88286848,-3.661134 -2.51049128,1.569058 -1.6736609,3.03351 -1.9874723,1.673661 -2.9289065,-0.418415 1.8828685,-2.824303 -1.6736609,0.523019 -1.7782644,1.359849 -1.35985,-1.359849 0.627623,2.615095 -3.242718,1.673661 -0.732227,-6.59004 -0.83683,-1.255246 0.418415,-1.67366 -1.150642,-1.150642 0.104604,3.03351 0.627623,1.987472 -0.83683,3.033511 -1.255246,0.209207 -0.418415,-2.301283 -0.209208,-2.615095 -0.418415,-2.301284 -0.523019,2.092076 0.418415,2.092076 -0.627623,3.974945 -1.987472,0.313811 -1.046038,-3.870341 -0.209208,-1.987472 1.569057,-3.870341 -1.882868,1.255246 -1.569057,-1.35985 0.418415,3.55653 0.941434,7.845284 -1.778264,-1.046037 -1.464454,-1.882868 -1.882868,0.523019 -0.313812,-1.464454 2.092077,-3.03351 1.046038,-1.464453 -1.255246,-1.046038 -1.255246,-1.255246 0.732227,2.301284 -2.824303,2.928906 -1.255245,-3.974944 -1.150642,2.19668 -1.464454,3.347321 -2.301283,0.104604 -1.882869,-0.104604 -0.732226,-3.451925 -2.092076,2.719699 0.418415,2.719699 -0.418415,2.719697 -1.882869,0.31381 -5.125586,-0.52302 -1.150642,-1.882865 0.209207,1.882865 -8.786719,2.6151 -1.150642,0.1046 -1.255246,2.40589 -0.732226,1.56906 -6.485436,1.46445 -1.882869,-0.62762 h -1.569057 l -0.418415,-3.24272 1.359849,-1.67366 -2.824302,-0.94144 0.104604,1.35985 -6.380833,-3.34732 h -3.03351 l -9.728154,0.94144 -1.150642,-1.15065 0.732227,-1.046033 2.615095,-1.987472 3.661133,-1.882869 -0.104603,-3.242718 1.464453,-2.19668 0.209207,-1.882868 7.322267,3.347321 1.569057,2.19668 5.23019,1.778265 1.987472,2.824303 2.092076,0.941434 1.987473,-1.673661 -3.451926,-0.523019 -1.882868,-2.510491 -5.962417,-7.217663 5.962417,0.941435 2.301283,1.67366 3.347322,1.882869 -0.83683,-1.673661 -4.916379,-3.556529 -4.916379,-3.138114 -0.313811,-2.301284 -1.569057,-3.974945 -0.313812,-2.19668 0.941434,-1.255245 4.497964,1.987472 2.719699,2.19668 2.405887,-0.209208 1.987473,2.510492 7.531474,3.138114 0.418415,2.19668 1.046038,-0.104604 0.83683,2.928906 -0.732226,0.836831 -0.104604,2.092076 2.405887,-3.138114 1.882869,-0.418415 2.405887,1.987472 -0.627622,-2.615095 5.962416,-2.510492 -5.020982,0.627623 -5.962417,-3.242718 3.242718,-1.987472 4.184152,-0.523019 4.707171,0.209208 -0.209207,-1.882869 1.882868,-1.255246 -0.941434,-0.941434 -3.661133,1.778265 -4.184152,0.732226 -5.125587,0.418416 -5.020982,-2.092076 -1.987473,0.313811 -3.347322,-4.288756 -2.824302,-5.020983 1.569057,-3.347321 h 3.661133 l 4.184152,1.987472 1.987472,1.987472 3.55653,-1.046038 2.19668,2.092076 9.832757,1.987473 -9.518946,-3.138115 -1.464453,-1.778264 -2.092076,-0.418415 -3.242718,-1.35985 -0.313812,-1.255246 -4.811775,-3.556529 -3.03351,-4.39336 -0.104604,-2.301283 1.464454,-2.405888 5.23019,1.35985 4.602567,2.301283 2.928907,0.418415 h 0.941434 l 0.418415,2.824303 2.301284,0.941434 -1.673661,-3.138114 -3.765737,-3.03351 -0.209208,1.150642 -1.987472,-1.882869 -1.569057,-1.673661 -1.150642,-0.209207 -1.569057,-2.928907 2.928907,-0.418415 1.046038,-0.83683 2.615095,0.627622 5.23019,3.661134 -3.661133,-3.55653 -1.046038,-0.83683 -4.707171,-0.627623 -0.104604,-1.255246 2.405887,-2.301283 2.19668,-0.104604 0.418415,-1.778265 3.347322,0.836831 5.544002,1.778264 0.627623,1.987473 2.510491,0.523019 2.19668,2.405887 -0.523019,3.870341 -1.882869,0.627623 0.732227,1.150642 4.079548,-5.020983 1.255246,1.150642 0.941434,1.987472 -0.104604,4.811775 -1.67366,1.464453 -1.778265,3.242718 3.03351,-2.615095 2.405888,-4.811775 0.83683,2.510491 -0.732226,2.510492 0.418415,2.301283 0.313811,-2.824302 1.35985,-2.19668 0.313811,-1.987472 0.313811,2.615095 -1.987472,5.23019 -2.824303,3.870341 3.138115,-3.138114 2.092076,-4.184153 1.255245,-0.523019 -0.313811,4.811775 -0.732227,4.39336 2.092076,-2.928906 0.313812,-4.916379 0.732226,-5.962417 h 3.347322 l 0.941434,3.138114 h 1.255246 l 1.150642,3.556529 0.418415,1.882869 -1.150642,5.544002 -1.255245,2.092076 -0.836831,4.393359 1.882869,-2.510491 0.941434,-3.661133 1.359849,-3.347322 1.150642,-4.602567 1.046038,3.870341 0.941435,-1.150642 1.778264,2.092076 -0.104604,3.242718 -2.405887,4.707171 -3.347322,4.707171 4.288756,-3.870341 1.882869,-2.196679 1.150642,-4.916379 1.882868,-0.209208 -1.464453,-2.405887 -2.092076,-6.380833 -1.987473,-1.987472 0.627623,-2.719699 3.55653,-3.347321 -4.602568,1.67366 -2.824303,-0.941434 -1.778264,-1.778265 -2.405888,-0.523019 -0.732226,-1.150641 -2.092077,-0.523019 -1.778264,-1.255246 -1.464453,0.313811 -0.836831,-1.464453 -2.719699,-1.464453 -1.987472,-3.138114 0.732227,-2.092076 2.824302,-0.313812 1.464454,-1.464453 3.87034,-0.418415 2.719699,1.778264 2.719699,-0.209207 2.510491,2.824302 -0.313811,-1.67366 -0.418415,-1.255246 5.020982,-1.046038 2.510492,-0.836831 -0.523019,-0.941434 -3.242718,0.836831 -3.870341,-0.732227 0.523019,-1.150642 2.719699,-1.359849 -0.418415,-1.987473 -1.046038,0.209208 -2.615095,3.451926 -4.707172,-1.046038 1.255246,-3.870341 2.824303,-1.778265 -3.55653,-0.104604 -1.882868,2.510492 -2.928907,1.67366 -0.313811,-1.987472 2.19668,-2.19668 -3.870341,2.510492 -0.209208,1.359849 -2.824302,1.35985 -2.19668,0.523019 -3.765737,-1.673661 -3.556529,-2.510492 z"
           id="path1004"
           sodipodi:nodetypes="cccccccccccccccccccccccccccccccccccccccccccccccccccccccccccccccccccccccccccccccccccccccccccccccccccccccccccccccccccccccccccccccccccccccccccccccccccccccccccccccccccccccccccccccccccccccccccccccccccccccccccccccccccccccccccccccccccccccccccccccccccccccccccccccccccccccccccccccccccccccccccccccccccccccccccccccccccccccccccccccccccccccccccccccccccccccccccccccccccccccccccccccccccccccccccccccccccccccccccccccccccccccccccccccccccccccccccccccccccccccscccccccccccccccccccccccccccsccccccccccccccccccccccccccccccccccccccccccccccccccccccccccccccccccccccccccccccccccccccccccccccccccccccccccccccccccccccccccccccccc" />
        <path
           style="opacity:1;vector-effect:none;fill:#ffffff;fill-opacity:1;stroke:none;stroke-width:0.264583px;stroke-linecap:butt;stroke-linejoin:miter;stroke-miterlimit:4;stroke-dasharray:none;stroke-dashoffset:0;stroke-opacity:1"
           d="m 58.159715,291.74 1.046039,2.19668 -1.046039,1.46447 -1.046038,-1.88288 0.104603,-1.35985 z"
           id="path2210" />
        <path
           style="opacity:1;vector-effect:none;fill:#ffffff;fill-opacity:1;stroke:none;stroke-width:0.264583px;stroke-linecap:butt;stroke-linejoin:miter;stroke-miterlimit:4;stroke-dasharray:none;stroke-dashoffset:0;stroke-opacity:1"
           d="m 69.247718,285.46377 2.092076,-1.98747 0.941435,-1.88285 -1.150644,-1.77827 -1.464453,0.73221 -1.150641,0.41844 0.732227,3.13809 -0.941436,1.46447 z"
           id="path2212" />
      </g>
      <g
         id="g7086"
         transform="matrix(0.92080261,0,0,0.92080261,525.38431,149.55755)">
        <path
           id="path2650"
           style="opacity:1;vector-effect:none;fill:#000000;fill-opacity:1;stroke:#000000;stroke-width:0.999999px;stroke-linecap:butt;stroke-linejoin:miter;stroke-miterlimit:4;stroke-dasharray:none;stroke-dashoffset:0;stroke-opacity:1"
           d="m -1595.7676,-62.416016 -81.7617,0.642578 c -32.8617,0.258331 -87.874,10.409607 -158.4824,17.830079 -13.6009,17.598775 -30.4856,45.3162317 -37.1328,70.96875 -5.7031,22.009067 -3.1013,45.685513 0,68.208984 1.7321,12.579795 11.0332,36.677735 11.0332,36.677735 0,0 15.7139,31.71335 24.7265,35.47656 15.2429,6.36462 39.8286,2.67918 39.5274,3.13086 34.533,4.07532 69.0647,13.35948 103.5976,12.22656 0,0 26.7539,6.07833 36.75,0.44727 12.6498,-7.12589 23.0332,-28.22852 23.0332,-28.22852 0,0 26.6538,-50.18168 38.7559,-52.00976 12.1021,1.82808 38.7559,52.00976 38.7559,52.00976 0,0 10.3814,21.10263 23.0312,28.22852 9.9962,5.63106 36.75,-0.44727 36.75,-0.44727 34.533,1.13292 69.0647,-8.15124 103.5977,-12.22656 -0.3013,-0.45168 24.2845,3.23376 39.5273,-3.13086 9.0126,-3.76321 24.7266,-35.47656 24.7266,-35.47656 0,0 9.3011,-24.09794 11.0332,-36.677735 3.1012,-22.523471 5.7031,-46.199917 0,-68.208984 -6.6473,-25.6525183 -23.5319,-53.369975 -37.1328,-70.96875 -70.6084,-7.420472 -125.6208,-17.571748 -158.4825,-17.830079 l -81.7597,-0.642578 z"
           transform="scale(0.26458333)" />
        <ellipse
           style="fill:#ffffff;fill-opacity:1;stroke:none;stroke-width:0.19961;stroke-linecap:round;stroke-linejoin:round"
           id="path6714"
           cx="-449.83612"
           cy="16.738649"
           rx="15.446703"
           ry="15.205858" />
        <ellipse
           style="fill:#ffffff;fill-opacity:1;stroke:none;stroke-width:0.19961;stroke-linecap:round;stroke-linejoin:round"
           id="ellipse6816"
           cx="394.5665"
           cy="16.738649"
           rx="15.446703"
           ry="15.205858"
           transform="scale(-1,1)" />
      </g>
    </g>
  </g>
</svg>
