<?xml version="1.0" encoding="UTF-8" standalone="no"?>
<!-- Created with Inkscape (http://www.inkscape.org/) -->

<svg
   width="367.91162"
   height="143.05469"
   viewBox="0 0 97.343281 37.849887"
   version="1.1"
   id="svg5"
   inkscape:version="1.1.1 (3bf5ae0d25, 2021-09-20)"
   sodipodi:docname="iceland.svg"
   xmlns:inkscape="http://www.inkscape.org/namespaces/inkscape"
   xmlns:sodipodi="http://sodipodi.sourceforge.net/DTD/sodipodi-0.dtd"
   xmlns="http://www.w3.org/2000/svg"
   xmlns:svg="http://www.w3.org/2000/svg">
  <sodipodi:namedview
     id="namedview7"
     pagecolor="#ffffff"
     bordercolor="#666666"
     borderopacity="1.0"
     inkscape:pageshadow="2"
     inkscape:pageopacity="0.0"
     inkscape:pagecheckerboard="0"
     inkscape:document-units="mm"
     showgrid="false"
     units="px"
     fit-margin-top="20"
     fit-margin-left="20"
     fit-margin-bottom="20"
     fit-margin-right="20"
     inkscape:zoom="1"
     inkscape:cx="238.5"
     inkscape:cy="96.5"
     inkscape:window-width="3440"
     inkscape:window-height="1377"
     inkscape:window-x="-8"
     inkscape:window-y="-8"
     inkscape:window-maximized="1"
     inkscape:current-layer="layer2" />
  <defs
     id="defs2" />
  <g
     inkscape:groupmode="layer"
     id="layer2"
     inkscape:label="Drawing"
     style="display:inline"
     transform="translate(-22.887455,-48.168998)">
    <path
       style="opacity:1;vector-effect:none;fill:#ffffff;fill-opacity:1;stroke:none;stroke-width:0.264583px;stroke-linecap:butt;stroke-linejoin:miter;stroke-miterlimit:4;stroke-dasharray:none;stroke-dashoffset:0;stroke-opacity:1"
       d="m 28.179122,80.568474 c 0.822035,-0.565149 1.572598,-1.173182 2.778223,-1.508178 0.414404,-1.164957 1.019587,-2.290399 1.4288,-2.381335 l 0.714399,-0.158755 c 0.06486,-0.310253 0.07924,-0.595266 0.07938,-0.873157 -0.156916,-0.873156 -0.401878,-2.414786 -0.238133,-2.619468 l 0.31751,-0.396888 c -0.122594,-0.601331 -0.118577,-1.17734 -0.07938,-1.746313 0.371202,-0.899036 0.863113,-1.70754 1.111289,-2.698846 0.03667,-0.860866 0.150527,-1.528754 0.317514,-2.063821 0.265452,-0.584256 0.588097,-1.311491 0.793776,-1.746313 l 0.476266,-0.317511 c 0,0 -0.0076,-1.021022 0.317513,-1.349423 0.185741,-0.187635 0.57383,-0.451852 0.769126,-0.189225 0.325951,0.438329 1.288047,1.307995 1.294696,1.300515 0.2287,0.267163 0.344827,1.678304 0.891399,2.137185 0.490772,0.72586 0.438584,1.151961 0.934292,1.434817 0.529066,0.301891 1.252894,0.286638 1.825688,0.07938 0.369877,-0.133835 0.528348,-0.604497 0.873157,-0.793779 0.528912,-0.290344 1.746311,-0.476266 1.746311,-0.476266 l 0.873156,-1.587556 c 0,0 0.06899,-1.010516 0.29345,-1.489741 0.175307,-0.374286 0.659085,-0.891593 0.659085,-0.891593 0.181031,-0.699129 0.255655,-1.866845 0.494508,-2.045582 0.110227,-0.568932 0.255519,-1.154943 0.458024,-1.447043 0,0 0.337626,-1.333768 0.873156,-1.349422 0.491961,-0.01438 0.873157,1.190667 0.873157,1.190667 l 0.555644,1.4288 0.873156,1.11129 c 0,0 1.076599,0.09544 1.501966,0.427554 0.438459,0.342338 0.604356,1.483724 0.604356,1.483724 l 0.433768,0.946322 0.29286,1.502164 0.183406,1.276059 0.878975,0.861127 0.787958,1.599586 0.085,0.854914 1.068985,0.555841 2.045384,0.237935 0.05453,0.683736 -0.07879,1.318953 0.238133,0.476266 0.677718,-0.07918 0.45142,-0.342161 1.887218,1.044336 0.793779,-0.226105 1.270045,-4.603914 -0.07938,-1.190667 0.476266,-0.714399 0.555646,-1.905069 v -2.143202 l 0.07938,-2.301954 0.396888,-0.873157 c 0.04911,0.01403 -0.185425,-1.502627 0.03066,-2.16105 0.05478,-0.166915 0.470054,-0.238332 0.470054,-0.238332 l 0.293057,-3.077689 0.873156,-0.793779 c 0,0 0.398781,-0.238095 0.622797,-0.268405 0.454098,-0.06144 1.36165,0.189027 1.36165,0.189027 l 0.873154,1.428801 0.158755,1.905068 0.952534,2.143199 0.647055,1.911282 0.183209,1.141758 0.115862,2.955024 -0.311102,0.73905 0.635021,1.746313 0.714402,0.238133 1.190667,-0.873157 1.270045,0.793779 0.07938,1.666933 1.031909,1.11129 0.427163,1.984447 c 0.49619,0.840565 0.483495,1.76148 0.366616,2.698845 0,0 -0.378073,0.270471 -0.396888,0.476266 -0.04422,0.48371 0.714399,1.270045 0.714399,1.270045 l 0.714401,0.873156 0.07938,1.428801 0.805613,1.196682 1.221333,3.91e-4 c 0.723398,-0.444736 0.694852,-1.376025 0.910032,-2.149608 l 0.08539,-3.309415 c -0.02246,-0.622089 -0.295557,-1.484437 0.232119,-1.612009 0.759984,-0.183734 2.553331,0.641715 2.54009,0.555646 l 0.769128,0.769322 0.104026,1.929523 -0.104026,1.795022 -0.213482,0.983201 0.793776,-0.07938 c 0,0 0.432301,-0.353979 0.689751,-0.34798 0.343553,0.008 0.897807,0.506736 0.897807,0.506736 0.600843,-0.09877 1.059788,-0.351256 1.270045,-0.873157 l 0.476266,-1.270045 c 0.299765,-1.986554 0.871229,-3.785009 0.793779,-6.032712 l 0.158756,-1.666936 c 0,0 0.37096,-0.718798 0.396888,-1.111287 0.02497,-0.378015 -0.238133,-1.111289 -0.238133,-1.111289 l 0.275013,-2.369108 c 2.84e-4,-1.8e-5 -0.113803,-2.552221 0.0425,-3.425474 0.05329,-0.297702 0.514056,-0.383224 0.873157,-0.238133 0.200118,0.08086 0.311102,0.567874 0.311102,0.567874 0,0 0.231689,-0.664168 0.4031,-0.525177 0.350593,0.284284 0.745369,1.667983 0.793976,1.624237 l 0.707992,2.161444 0.03668,2.399576 c -0.182826,0.43515 -0.417769,0.975213 -0.305285,1.410756 l -0.0425,1.330983 0.238133,1.666933 -0.110044,1.3863 0.818233,0.0062 0.720611,-2.027534 c 0.308659,-0.386325 0.493238,-0.847098 0.476269,-1.4288 -0.02665,-0.557263 -0.141187,-0.826759 0.329738,-1.477318 l 0.225906,-1.14215 0.873156,-0.317513 c 0.369427,-0.635106 0.137294,-1.320341 0.158756,-1.984444 0.278362,-0.213429 0.472824,-0.496775 0.555643,-0.873157 -0.133171,-0.925637 -0.06778,-1.950553 -0.555643,-2.698845 l -0.396889,-1.666933 c -0.04009,-0.856563 0.260103,-1.974885 -0.158755,-2.54009 0,0 -0.294018,-0.965452 0,-1.270045 0.479563,-0.496811 2.070231,-0.07316 2.070231,-0.07316 l 0.188439,1.013276 1.472085,1.203091 1.825687,0.396888 h 1.34942 c 0,0 0.46892,-0.477076 0.76351,-0.451618 0.63706,0.05505 1.45907,1.245394 1.45907,1.245394 l 0.79378,1.666936 c -0.0312,0.735017 0.11361,1.397582 0.63502,1.905066 v 1.270045 l 0.31751,1.508178 1.54447,1.379697 c 0.0745,0.593085 0.18713,1.15752 0.51936,1.557284 l 1.66693,1.111287 c 0.0899,0.796117 0.66886,1.317164 1.27005,1.825691 l 0.18301,2.332624 0.2197,2.918538 0.31171,1.972217 c 0.0977,0.580081 0.5897,0.909216 1.03191,1.270045 l 1.27004,0.635024 z"
       id="path870"
       sodipodi:nodetypes="ccsccsccccccasccassccscccacccscccccccccccccccccccccccscccaccccccccccccccccscccccccsccccccacccccaccsscsccccccccccccccccccacccccaccccccccccccccc" />
  </g>
</svg>
